<mxfile host="Electron" modified="2024-10-17T20:37:40.367Z" agent="Mozilla/5.0 (Windows NT 10.0; Win64; x64) AppleWebKit/537.36 (KHTML, like Gecko) draw.io/24.4.8 Chrome/124.0.6367.207 Electron/30.0.6 Safari/537.36" etag="H5cJJFGlbgwl5jsHauml" version="24.4.8" type="device">
  <diagram name="Scribble Pad" id="6k_CqKPzuQGrd2Cu_EZv">
    <mxGraphModel dx="2311" dy="1115" grid="0" gridSize="10" guides="1" tooltips="1" connect="1" arrows="1" fold="1" page="1" pageScale="1" pageWidth="3300" pageHeight="2339" math="0" shadow="0">
      <root>
        <mxCell id="0" />
        <mxCell id="1" parent="0" />
        <mxCell id="0YAYyB8_5NRjqVXGDR1G-1" value="" style="rounded=1;whiteSpace=wrap;html=1;fillColor=#f5f5f5;strokeColor=#666666;fontColor=#333333;shadow=0;" vertex="1" parent="1">
          <mxGeometry x="1230" y="332" width="560" height="470" as="geometry" />
        </mxCell>
        <mxCell id="0YAYyB8_5NRjqVXGDR1G-2" value="Timer" style="ellipse;whiteSpace=wrap;html=1;aspect=fixed;fillColor=#e6d0de;gradientColor=#d5739d;strokeColor=#996185;shadow=0;" vertex="1" parent="1">
          <mxGeometry x="1470" y="362" width="60" height="60" as="geometry" />
        </mxCell>
        <mxCell id="0YAYyB8_5NRjqVXGDR1G-5" value="PLAYER 1" style="rounded=1;whiteSpace=wrap;html=1;fillColor=#a0522d;fontColor=#ffffff;strokeColor=#6D1F00;shadow=0;" vertex="1" parent="1">
          <mxGeometry x="1260" y="372" width="100" height="40" as="geometry" />
        </mxCell>
        <mxCell id="0YAYyB8_5NRjqVXGDR1G-6" value="PLAYER 1" style="rounded=1;whiteSpace=wrap;html=1;fillColor=#a0522d;strokeColor=#6D1F00;fontColor=#ffffff;shadow=0;" vertex="1" parent="1">
          <mxGeometry x="1660" y="362" width="100" height="40" as="geometry" />
        </mxCell>
        <mxCell id="0YAYyB8_5NRjqVXGDR1G-7" value="" style="verticalLabelPosition=bottom;verticalAlign=top;html=1;shadow=0;dashed=0;strokeWidth=1;shape=mxgraph.ios.iIconGrid;gridSize=3,3;fillColor=#f8cecc;strokeColor=#b85450;" vertex="1" parent="1">
          <mxGeometry x="1440" y="472" width="136" height="140" as="geometry" />
        </mxCell>
        <mxCell id="0YAYyB8_5NRjqVXGDR1G-8" value="RESIGN" style="ellipse;whiteSpace=wrap;html=1;shadow=0;" vertex="1" parent="1">
          <mxGeometry x="1660" y="472" width="90" height="50" as="geometry" />
        </mxCell>
        <mxCell id="0YAYyB8_5NRjqVXGDR1G-9" value="CLAIM VICTORY" style="ellipse;whiteSpace=wrap;html=1;shadow=0;" vertex="1" parent="1">
          <mxGeometry x="1660" y="537" width="90" height="50" as="geometry" />
        </mxCell>
        <mxCell id="0YAYyB8_5NRjqVXGDR1G-10" value="" style="rounded=1;whiteSpace=wrap;html=1;shadow=0;" vertex="1" parent="1">
          <mxGeometry x="1250" y="452" width="140" height="250" as="geometry" />
        </mxCell>
        <mxCell id="0YAYyB8_5NRjqVXGDR1G-12" value="" style="whiteSpace=wrap;html=1;shape=mxgraph.basic.oval_callout;fillColor=#f5f5f5;fontColor=#333333;strokeColor=#666666;shadow=0;" vertex="1" parent="1">
          <mxGeometry x="1260" y="472" width="110" height="40" as="geometry" />
        </mxCell>
        <mxCell id="0YAYyB8_5NRjqVXGDR1G-13" value="" style="whiteSpace=wrap;html=1;shape=mxgraph.basic.oval_callout;fillColor=#f5f5f5;fontColor=#333333;strokeColor=#666666;flipH=1;shadow=0;" vertex="1" parent="1">
          <mxGeometry x="1280" y="522" width="110" height="40" as="geometry" />
        </mxCell>
        <mxCell id="0YAYyB8_5NRjqVXGDR1G-15" value="" style="rounded=1;whiteSpace=wrap;html=1;fillColor=#f8cecc;strokeColor=#b85450;shadow=0;" vertex="1" parent="1">
          <mxGeometry x="1260" y="652" width="120" height="40" as="geometry" />
        </mxCell>
        <mxCell id="0YAYyB8_5NRjqVXGDR1G-16" value="" style="html=1;verticalLabelPosition=bottom;align=center;labelBackgroundColor=#ffffff;verticalAlign=top;strokeWidth=2;strokeColor=#0080F0;shadow=0;dashed=0;shape=mxgraph.ios7.icons.pointer;" vertex="1" parent="1">
          <mxGeometry x="1340" y="662" width="30" height="30" as="geometry" />
        </mxCell>
        <mxCell id="0YAYyB8_5NRjqVXGDR1G-17" value="&lt;font style=&quot;font-size: 17px;&quot;&gt;Game page&lt;/font&gt;" style="text;html=1;align=center;verticalAlign=middle;whiteSpace=wrap;rounded=0;fontStyle=1" vertex="1" parent="1">
          <mxGeometry x="1461" y="826" width="60" height="30" as="geometry" />
        </mxCell>
        <mxCell id="0YAYyB8_5NRjqVXGDR1G-19" value="" style="rounded=1;whiteSpace=wrap;html=1;fillColor=#f5f5f5;fontColor=#333333;strokeColor=#666666;" vertex="1" parent="1">
          <mxGeometry x="191" y="297" width="746" height="588" as="geometry" />
        </mxCell>
        <mxCell id="0YAYyB8_5NRjqVXGDR1G-20" value="Username" style="ellipse;whiteSpace=wrap;html=1;" vertex="1" parent="1">
          <mxGeometry x="739" y="325" width="157" height="80" as="geometry" />
        </mxCell>
        <mxCell id="0YAYyB8_5NRjqVXGDR1G-21" value="Enter Arena" style="rounded=1;whiteSpace=wrap;html=1;fontSize=16;fontStyle=1" vertex="1" parent="1">
          <mxGeometry x="393" y="580" width="296" height="60" as="geometry" />
        </mxCell>
        <mxCell id="0YAYyB8_5NRjqVXGDR1G-22" value="LeaderBoard" style="rounded=1;whiteSpace=wrap;html=1;fontSize=16;fontStyle=1" vertex="1" parent="1">
          <mxGeometry x="393" y="659" width="296" height="60" as="geometry" />
        </mxCell>
        <mxCell id="0YAYyB8_5NRjqVXGDR1G-25" value="Home Page" style="text;html=1;align=center;verticalAlign=middle;whiteSpace=wrap;rounded=0;fontSize=17;fontStyle=1" vertex="1" parent="1">
          <mxGeometry x="489.5" y="901" width="103" height="78" as="geometry" />
        </mxCell>
      </root>
    </mxGraphModel>
  </diagram>
</mxfile>
